<svg width="12" height="18" viewBox="0 0 12 18" fill="none" xmlns="http://www.w3.org/2000/svg">
<path d="M8.60775 9.67084L9.744 16.0653C9.75672 16.1406 9.74616 16.218 9.71371 16.2872C9.68127 16.3563 9.6285 16.4139 9.56244 16.4522C9.49639 16.4905 9.42022 16.5078 9.3441 16.5016C9.26798 16.4955 9.19555 16.4663 9.1365 16.4178L6.4515 14.4026C6.32188 14.3058 6.16442 14.2534 6.00262 14.2534C5.84082 14.2534 5.68337 14.3058 5.55375 14.4026L2.86425 16.4171C2.80524 16.4654 2.73289 16.4946 2.65687 16.5007C2.58084 16.5069 2.50475 16.4897 2.43874 16.4515C2.37274 16.4133 2.31995 16.3558 2.28744 16.2868C2.25492 16.2178 2.24421 16.1406 2.25675 16.0653L3.39225 9.67084M10.5 6.00342C10.5 8.4887 8.48528 10.5034 6 10.5034C3.51472 10.5034 1.5 8.4887 1.5 6.00342C1.5 3.51814 3.51472 1.50342 6 1.50342C8.48528 1.50342 10.5 3.51814 10.5 6.00342Z" stroke="white" stroke-width="1.5" stroke-linecap="round" stroke-linejoin="round"/>
</svg>
