<svg width="24" height="30" viewBox="0 0 24 30" fill="none" xmlns="http://www.w3.org/2000/svg">
<path d="M1.33325 25.0001V5.00008C1.33325 4.11603 1.68444 3.26818 2.30956 2.64306C2.93468 2.01794 3.78253 1.66675 4.66659 1.66675H21.3333C21.6869 1.66675 22.026 1.80722 22.2761 2.05727C22.5261 2.30732 22.6666 2.64646 22.6666 3.00008V27.0001C22.6666 27.3537 22.5261 27.6928 22.2761 27.9429C22.026 28.1929 21.6869 28.3334 21.3333 28.3334H4.66659C3.78253 28.3334 2.93468 27.9822 2.30956 27.3571C1.68444 26.732 1.33325 25.8841 1.33325 25.0001ZM1.33325 25.0001C1.33325 24.116 1.68444 23.2682 2.30956 22.6431C2.93468 22.0179 3.78253 21.6667 4.66659 21.6667H22.6666" stroke="#015E17" stroke-width="2.5" stroke-linecap="round" stroke-linejoin="round"/>
</svg>
