<svg width="24" height="30" viewBox="0 0 24 30" fill="none" xmlns="http://www.w3.org/2000/svg">
<path d="M2.66683 28.3334H21.3335M14.6668 16.3334V10.3334C14.6668 8.33341 16.0002 8.33341 16.0002 5.66675C16.0002 4.60588 15.5787 3.58847 14.8286 2.83832C14.0784 2.08818 13.061 1.66675 12.0002 1.66675C9.78683 1.66675 8.00016 3.00008 8.00016 5.66675C8.00016 8.33341 9.3335 8.33341 9.3335 10.3334V16.3334M21.6935 17.3068C21.3834 16.9974 21.0153 16.7522 20.6104 16.5852C20.2054 16.4182 19.7715 16.3326 19.3335 16.3334H4.66683C3.78277 16.3334 2.93493 16.6846 2.30981 17.3097C1.68469 17.9349 1.3335 18.7827 1.3335 19.6668V21.6668C1.3335 22.0204 1.47397 22.3595 1.72402 22.6096C1.97407 22.8596 2.31321 23.0001 2.66683 23.0001H21.3335C21.6871 23.0001 22.0263 22.8596 22.2763 22.6096C22.5264 22.3595 22.6668 22.0204 22.6668 21.6668V19.6668C22.6668 18.7868 22.3202 17.9334 21.6935 17.3068Z" stroke="#015E17" stroke-width="2.5" stroke-linecap="round" stroke-linejoin="round"/>
</svg>
