<svg width="19" height="18" viewBox="0 0 19 18" fill="none" xmlns="http://www.w3.org/2000/svg">
<path d="M9.49999 3.16667C10.75 1.91667 11.7833 1.5 13.25 1.5C14.4656 1.5 15.6314 1.98289 16.4909 2.84243C17.3504 3.70197 17.8333 4.86776 17.8333 6.08333C17.8333 7.99167 16.575 9.45 15.3333 10.6667L9.49999 16.5L3.66666 10.6667C2.41666 9.45833 1.16666 8 1.16666 6.08333C1.16666 4.86776 1.64954 3.70197 2.50908 2.84243C3.36863 1.98289 4.53441 1.5 5.74999 1.5C7.21666 1.5 8.24999 1.91667 9.49999 3.16667ZM9.49999 3.16667L7.03341 5.63333C6.86409 5.80142 6.72971 6.00135 6.63801 6.22161C6.54631 6.44186 6.49909 6.67808 6.49909 6.91667C6.49909 7.15525 6.54631 7.39147 6.63801 7.61173C6.72971 7.83198 6.86409 8.03191 7.03341 8.2C7.71674 8.88333 8.80841 8.90833 9.53341 8.25833L11.2584 6.675C11.6908 6.28266 12.2537 6.06533 12.8376 6.06533C13.4214 6.06533 13.9844 6.28266 14.4167 6.675L16.8834 8.89167M14.5 11.5L12.8333 9.83333M12 14L10.3333 12.3333" stroke="#272088" stroke-width="2" stroke-linecap="round" stroke-linejoin="round"/>
</svg>
