<svg width="19" height="18" viewBox="0 0 19 18" fill="none" xmlns="http://www.w3.org/2000/svg">
<path d="M3.66667 16.5H15.3333M9.13495 1.72156C9.17092 1.65623 9.22376 1.60176 9.28796 1.56382C9.35216 1.52587 9.42537 1.50586 9.49995 1.50586C9.57452 1.50586 9.64773 1.52587 9.71193 1.56382C9.77614 1.60176 9.82898 1.65623 9.86495 1.72156L12.3249 6.39156C12.3836 6.4997 12.4655 6.5935 12.5647 6.66625C12.6639 6.73899 12.778 6.78886 12.8988 6.81228C13.0196 6.8357 13.144 6.83209 13.2632 6.80171C13.3824 6.77133 13.4934 6.71493 13.5883 6.63656L17.1524 3.58323C17.2209 3.52758 17.3052 3.49508 17.3932 3.4904C17.4813 3.48572 17.5686 3.5091 17.6425 3.55718C17.7165 3.60527 17.7732 3.67557 17.8047 3.75797C17.8361 3.84037 17.8406 3.93062 17.8174 4.01573L15.4558 12.5541C15.4076 12.7288 15.3037 12.883 15.16 12.9934C15.0162 13.1038 14.8404 13.1643 14.6591 13.1657H4.34161C4.16023 13.1645 3.9842 13.104 3.84027 12.9937C3.69634 12.8833 3.59236 12.7289 3.54411 12.5541L1.18328 4.01656C1.16015 3.93146 1.16463 3.84121 1.19606 3.75881C1.2275 3.6764 1.28427 3.6061 1.3582 3.55802C1.43213 3.50993 1.51941 3.48655 1.60748 3.49123C1.69555 3.49591 1.77986 3.52841 1.84828 3.58406L5.41161 6.6374C5.50645 6.71576 5.61745 6.77216 5.73667 6.80254C5.85588 6.83292 5.98034 6.83653 6.10111 6.81311C6.22189 6.78969 6.33598 6.73982 6.43519 6.66708C6.5344 6.59434 6.61628 6.50053 6.67495 6.3924L9.13495 1.72156Z" stroke="#272088" stroke-width="2" stroke-linecap="round" stroke-linejoin="round"/>
</svg>
