<svg width="19" height="14" viewBox="0 0 19 14" fill="none" xmlns="http://www.w3.org/2000/svg">
<path d="M1.21835 7.2903C1.1489 7.1032 1.1489 6.8974 1.21835 6.7103C1.89476 5.07018 3.04294 3.66783 4.51732 2.68105C5.9917 1.69426 7.72588 1.16748 9.50001 1.16748C11.2741 1.16748 13.0083 1.69426 14.4827 2.68105C15.9571 3.66783 17.1053 5.07018 17.7817 6.7103C17.8511 6.8974 17.8511 7.1032 17.7817 7.2903C17.1053 8.93042 15.9571 10.3328 14.4827 11.3196C13.0083 12.3063 11.2741 12.8331 9.50001 12.8331C7.72588 12.8331 5.9917 12.3063 4.51732 11.3196C3.04294 10.3328 1.89476 8.93042 1.21835 7.2903Z" stroke="#272088" stroke-width="2" stroke-linecap="round" stroke-linejoin="round"/>
<path d="M9.5 9.5002C10.8807 9.5002 12 8.38092 12 7.0002C12 5.61949 10.8807 4.5002 9.5 4.5002C8.11929 4.5002 7 5.61949 7 7.0002C7 8.38092 8.11929 9.5002 9.5 9.5002Z" stroke="#272088" stroke-width="2" stroke-linecap="round" stroke-linejoin="round"/>
</svg>
