<svg width="30" height="22" viewBox="0 0 30 22" fill="none" xmlns="http://www.w3.org/2000/svg">
<path d="M28.333 8.33325V16.3333M6.99967 11.6666V16.3333C6.99967 17.3941 7.84253 18.4115 9.34282 19.1617C10.8431 19.9118 12.8779 20.3333 14.9997 20.3333C17.1214 20.3333 19.1562 19.9118 20.6565 19.1617C22.1568 18.4115 22.9997 17.3941 22.9997 16.3333V11.6666M27.5597 9.56274C27.7984 9.45744 28.001 9.28443 28.1423 9.06514C28.2836 8.84585 28.3575 8.58992 28.3548 8.32905C28.3521 8.06818 28.273 7.81383 28.1271 7.59751C27.9813 7.3812 27.7752 7.21241 27.5344 7.11207L16.1064 1.90674C15.759 1.74827 15.3816 1.66626 14.9997 1.66626C14.6179 1.66626 14.2405 1.74827 13.8931 1.90674L2.4664 7.10674C2.22902 7.2107 2.02709 7.38158 1.88529 7.59849C1.74349 7.8154 1.66797 8.06893 1.66797 8.32807C1.66797 8.58721 1.74349 8.84074 1.88529 9.05765C2.02709 9.27456 2.22902 9.44544 2.4664 9.5494L13.8931 14.7601C14.2405 14.9185 14.6179 15.0005 14.9997 15.0005C15.3816 15.0005 15.759 14.9185 16.1064 14.7601L27.5597 9.56274Z" stroke="#272088" stroke-width="2.5" stroke-linecap="round" stroke-linejoin="round"/>
</svg>
