<svg width="30" height="28" viewBox="0 0 30 28" fill="none" xmlns="http://www.w3.org/2000/svg">
<path d="M13.667 20.6666L16.3337 23.3333C16.5963 23.5959 16.9081 23.8042 17.2513 23.9464C17.5944 24.0885 17.9622 24.1617 18.3337 24.1617C18.7051 24.1617 19.0729 24.0885 19.4161 23.9464C19.7592 23.8042 20.071 23.5959 20.3337 23.3333C20.5963 23.0706 20.8046 22.7588 20.9468 22.4156C21.0889 22.0725 21.1621 21.7047 21.1621 21.3333C21.1621 20.9618 21.0889 20.594 20.9468 20.2509C20.8046 19.9077 20.5963 19.5959 20.3337 19.3333M17.667 16.6666L21.0003 19.9999C21.5307 20.5304 22.2502 20.8284 23.0003 20.8284C23.7504 20.8284 24.4699 20.5304 25.0003 19.9999C25.5307 19.4695 25.8287 18.7501 25.8287 17.9999C25.8287 17.2498 25.5307 16.5304 25.0003 15.9999L19.827 10.8266C19.077 10.0775 18.0603 9.65679 17.0003 9.65679C15.9403 9.65679 14.9236 10.0775 14.1736 10.8266L13.0003 11.9999C12.4699 12.5304 11.7504 12.8284 11.0003 12.8284C10.2502 12.8284 9.53074 12.5304 9.0003 11.9999C8.46987 11.4695 8.17188 10.7501 8.17188 9.99994C8.17188 9.24979 8.46987 8.53037 9.0003 7.99994L12.747 4.25327C13.9633 3.04013 15.5495 2.26734 17.2545 2.05724C18.9595 1.84713 20.6859 2.21171 22.1603 3.09327L22.787 3.46661C23.3547 3.80925 24.0297 3.92809 24.6803 3.79994L27.0003 3.33327M27.0003 1.99992L28.3337 16.6666H25.667M3.00033 1.99992L1.66699 16.6666L10.3337 25.3333C10.8641 25.8637 11.5835 26.1617 12.3337 26.1617C13.0838 26.1617 13.8032 25.8637 14.3337 25.3333C14.8641 24.8028 15.1621 24.0834 15.1621 23.3333C15.1621 22.5831 14.8641 21.8637 14.3337 21.3333M3.00033 3.33325H13.667" stroke="#272088" stroke-width="2.5" stroke-linecap="round" stroke-linejoin="round"/>
</svg>
