<svg width="23" height="22" viewBox="0 0 23 22" fill="none" xmlns="http://www.w3.org/2000/svg">
<path d="M4.05936 15V12C4.05936 11.7348 4.16471 11.4804 4.35225 11.2929C4.53979 11.1054 4.79414 11 5.05936 11H17.0594C17.3246 11 17.5789 11.1054 17.7665 11.2929C17.954 11.4804 18.0594 11.7348 18.0594 12V15M11.0594 11V7M16.0594 15H20.0594C20.6116 15 21.0594 15.4477 21.0594 16V20C21.0594 20.5523 20.6116 21 20.0594 21H16.0594C15.5071 21 15.0594 20.5523 15.0594 20V16C15.0594 15.4477 15.5071 15 16.0594 15ZM2.05936 15H6.05936C6.61164 15 7.05936 15.4477 7.05936 16V20C7.05936 20.5523 6.61164 21 6.05936 21H2.05936C1.50707 21 1.05936 20.5523 1.05936 20V16C1.05936 15.4477 1.50707 15 2.05936 15ZM9.05936 1H13.0594C13.6116 1 14.0594 1.44772 14.0594 2V6C14.0594 6.55228 13.6116 7 13.0594 7H9.05936C8.50707 7 8.05936 6.55228 8.05936 6V2C8.05936 1.44772 8.50707 1 9.05936 1Z" stroke="#00A01B" stroke-width="2" stroke-linecap="round" stroke-linejoin="round"/>
</svg>
