<svg width="17" height="20" viewBox="0 0 17 20" fill="none" xmlns="http://www.w3.org/2000/svg">
<path d="M15.1667 10.8335C15.1667 15.0002 12.25 17.0835 8.78334 18.2919C8.60181 18.3534 8.40462 18.3505 8.22501 18.2835C4.75001 17.0835 1.83334 15.0002 1.83334 10.8335V5.00021C1.83334 4.7792 1.92114 4.56724 2.07742 4.41096C2.2337 4.25468 2.44566 4.16688 2.66668 4.16688C4.33334 4.16688 6.41668 3.16688 7.86668 1.90021C8.04322 1.74938 8.2678 1.6665 8.50001 1.6665C8.73222 1.6665 8.9568 1.74938 9.13334 1.90021C10.5917 3.17521 12.6667 4.16688 14.3333 4.16688C14.5544 4.16688 14.7663 4.25468 14.9226 4.41096C15.0789 4.56724 15.1667 4.7792 15.1667 5.00021V10.8335Z" stroke="#272088" stroke-width="2" stroke-linecap="round" stroke-linejoin="round"/>
</svg>
