<svg width="30" height="28" viewBox="0 0 30 28" fill="none" xmlns="http://www.w3.org/2000/svg">
<path d="M20.3334 26V23.3333C20.3334 21.9188 19.7715 20.5623 18.7713 19.5621C17.7711 18.5619 16.4146 18 15.0001 18H7.00008C5.58559 18 4.22904 18.5619 3.22885 19.5621C2.22865 20.5623 1.66675 21.9188 1.66675 23.3333V26M28.3334 25.9998V23.3332C28.3325 22.1515 27.9392 21.0035 27.2152 20.0696C26.4912 19.1357 25.4776 18.4686 24.3334 18.1732M20.3334 2.17318C21.4806 2.46691 22.4975 3.13411 23.2236 4.06959C23.9497 5.00507 24.3439 6.15562 24.3439 7.33984C24.3439 8.52407 23.9497 9.67462 23.2236 10.6101C22.4975 11.5456 21.4806 12.2128 20.3334 12.5065M16.3334 7.33333C16.3334 10.2789 13.9456 12.6667 11.0001 12.6667C8.05456 12.6667 5.66675 10.2789 5.66675 7.33333C5.66675 4.38781 8.05456 2 11.0001 2C13.9456 2 16.3334 4.38781 16.3334 7.33333Z" stroke="#272088" stroke-width="2.5" stroke-linecap="round" stroke-linejoin="round"/>
</svg>
