<svg width="30" height="27" viewBox="0 0 30 27" fill="none" xmlns="http://www.w3.org/2000/svg">
<path d="M15 10.0002V15.3335M15 20.6668H15.0133M27.9732 22.0005L17.3066 3.3338C17.074 2.9234 16.7367 2.58205 16.3291 2.34455C15.9216 2.10706 15.4583 1.98193 14.9866 1.98193C14.5149 1.98193 14.0516 2.10706 13.644 2.34455C13.2364 2.58205 12.8992 2.9234 12.6666 3.3338L1.99991 22.0005C1.76482 22.4076 1.64154 22.8697 1.64258 23.3398C1.64363 23.8099 1.76894 24.2715 2.00583 24.6776C2.24273 25.0837 2.58277 25.4199 2.9915 25.6522C3.40023 25.8846 3.86312 26.0047 4.33324 26.0005H25.6666C26.1344 26 26.5939 25.8764 26.9989 25.6422C27.404 25.4079 27.7402 25.0712 27.9739 24.6659C28.2076 24.2606 28.3306 23.801 28.3305 23.3331C28.3304 22.8652 28.2072 22.4056 27.9732 22.0005Z" stroke="#D70000" stroke-width="2" stroke-linecap="round" stroke-linejoin="round"/>
</svg>
