<svg width="30" height="31" viewBox="0 0 30 31" fill="none" xmlns="http://www.w3.org/2000/svg">
<path d="M15.0001 2.16675V12.1667M15.0001 12.1667C13.1591 12.1667 11.6667 13.6591 11.6667 15.5001M15.0001 12.1667C16.841 12.1667 18.3334 13.6591 18.3334 15.5001M24.3334 6.16675L17.3601 13.1401M28.3334 15.5001H18.3334M18.3334 15.5001C18.3334 17.341 16.841 18.8334 15.0001 18.8334M24.3334 24.8334L17.3601 17.8601M15.0001 18.8334V28.8334M15.0001 18.8334C13.1591 18.8334 11.6667 17.341 11.6667 15.5001M12.6401 17.8601L5.66675 24.8334M11.6667 15.5001H1.66675M12.6401 13.1401L5.66675 6.16675M25.6667 15.5001C25.6667 21.3911 20.8911 26.1667 15.0001 26.1667C9.10904 26.1667 4.33341 21.3911 4.33341 15.5001C4.33341 9.60904 9.10904 4.83341 15.0001 4.83341C20.8911 4.83341 25.6667 9.60904 25.6667 15.5001Z" stroke="#015E17" stroke-width="2.5" stroke-linecap="round" stroke-linejoin="round"/>
</svg>
