<svg width="22" height="23" viewBox="0 0 22 23" fill="none" xmlns="http://www.w3.org/2000/svg">
<path d="M21 11.4731C21 16.996 16.5228 21.4731 11 21.4731M21 11.4731C21 5.9503 16.5228 1.47314 11 1.47314M21 11.4731H1M11 21.4731C5.47715 21.4731 1 16.996 1 11.4731M11 21.4731C8.43223 18.777 7 15.1964 7 11.4731C7 7.74988 8.43223 4.1693 11 1.47314M11 21.4731C13.5678 18.777 15 15.1964 15 11.4731C15 7.74988 13.5678 4.1693 11 1.47314M1 11.4731C1 5.9503 5.47715 1.47314 11 1.47314" stroke="#272088" stroke-width="2" stroke-linecap="round" stroke-linejoin="round"/>
</svg>
